<svg xmlns="http://www.w3.org/2000/svg" viewBox="0 0 24 24" fill="none">
  <rect width="24" height="24" rx="6" fill="#000000"/>
  <g fill="#ffffff">
    <path d="M12 2c3 2.5 4 6 4 10 0 2-1 4-2 5.5l-2 2-2-2c-1-1.5-2-3.5-2-5.5 0-4 1-7.5 4-10z"/>
    <path d="M8 14c-1.5 0-3 1.5-3 4 2 0 3.5-1 4-2.5z"/>
    <path d="M16 14c1.5 0 3 1.5 3 4-2 0-3.5-1-4-2.5z"/>
  </g>
  <circle cx="12" cy="10" r="1.6" fill="#000000"/>
  <path d="M12 19.5c-.8 1-1.2 2-1.2 2.8 0 .8.5 1.2 1.2 1.2s1.2-.4 1.2-1.2c0-.8-.4-1.8-1.2-2.8z" fill="#f97316"/>
</svg>
