<svg version="1.1" id="Layer_2" xmlns="http://www.w3.org/2000/svg" x="0" y="0" viewBox="0 0 629.8 122.5" xml:space="preserve">
  <style>
    .st1{fill:none}
  </style>
  <path d="M116.5 44.6 95.6 60.4h-2.9l23.8-21.1v-4.5L83.8 60.4h-3l35.8-32.9v-3.2L71.9 60.4h-3l47.7-45.7v-1.8L59.7 60.6l56.9 56.8V53.7l-9.1 6.7h-2.9l12-10.1zM58.3 59.1 116.6.8H0z" style="fill:#ea0029"/>
  <path d="M197.1.8h16.8V47h-16.8zm23.4 0h17.1C253.1.8 265 7.6 265 24.6c0 13.7-9.7 22.4-23.2 22.4h-21.3zm16.8 32.4h1c5.6 0 9.9-2.6 9.9-8.6 0-6.5-3.7-9.3-9.9-9.3h-1zM383.7.8h31.1v12.6h-14.2v4.4h12.9v12h-12.9v4.5h14.7V47h-31.6zm84.8 0h16.8V47h-16.8zM525 19.5c-2.7-2.5-6.1-4.7-9.9-4.7-5 0-9.1 4-9.1 9 0 5.1 4.4 9 9.4 9 3.9 0 6.9-1.7 9.6-4.3l-.5 17.3c-2.7 1.3-9 1.8-12 1.8-13.2 0-23.5-10.2-23.5-23.4 0-13.5 10.6-24.3 24.2-24.3 3.8 0 7.7.7 11.3 1.9zM545.9 47h-17.8L544.2.8h18.6L579.2 47h-17.8l-1.5-5.8h-12.7zm11-16.7-3.1-14.1h-.6l-3.1 14.1zM582.5.8h16.1l14.2 25.7V.8h16.1V47h-16.1L598 22.7l.6.1V47h-16.1zm-285 0h-18.6L262.8 47h17.8l7.4-30.8h.6l3.1 14.1h-2.9l-4.1 10.9h9.9l1.6 5.8h17.7zM175 13.9h-.1l-6.5 33h-16.7l-6.5-33h-.2v33h-15.5V.7h25.4l5 27.5h.1l5-27.5h25.4v46.1H175zm187.6 0h-.1l-6.5 33h-16.7l-6.5-33h-.1v33h-15.5V.7h25.4l5 27.5h.1l5-27.5H378v46.1h-15.5V13.9zm-217.7 95.7c0 4.2-3.6 7.7-7.8 7.7s-7.8-3.5-7.8-7.7 3.5-7.7 7.8-7.7c4.2 0 7.8 3.5 7.8 7.7m-14.6 0c0 3.7 3.1 6.8 6.8 6.8s6.8-3.1 6.8-6.8-3.1-6.8-6.8-6.8-6.8 3.1-6.8 6.8m16.8-8.9h.9v8.8c.8-1.2 2.1-1.8 3.5-1.8 2.7 0 4.5 2 4.5 4.7s-1.7 4.8-4.5 4.8c-1.3 0-2.8-.7-3.5-1.8v1.6h-.9zm8.1 11.8c0-2-1.4-3.9-3.6-3.9-2.3 0-3.7 1.7-3.7 3.9 0 2.1 1.3 4 3.6 4s3.7-1.9 3.7-4m6.9-2.9c-.3-.6-.9-1-1.6-1-.8 0-1.6.6-1.6 1.4 0 2.2 4.5 1.1 4.5 4.4 0 1.7-1.3 2.9-3 2.9-1.5 0-2.8-.9-3.2-2.4l.9-.3c.3 1.1 1.1 1.9 2.3 1.9s2.1-.9 2.1-2.1c0-1.1-.9-1.5-1.8-1.8-1.2-.5-2.7-1-2.7-2.5 0-1.4 1.2-2.3 2.5-2.3.9 0 1.9.6 2.3 1.5zm3.6 3c-.1 2.3 1.5 3.9 3.7 3.9 1.4 0 2.6-.9 3.2-2.1l.8.4c-.8 1.6-2.3 2.5-4.1 2.5-2.7 0-4.4-2.2-4.4-4.8s1.8-4.8 4.4-4.8c2.8 0 4.4 2.2 4.4 4.9zm7-.8c-.2-1.7-1.6-3.2-3.5-3.2s-3.4 1.5-3.6 3.2zm6.9-2.2c-.3-.6-.9-1-1.6-1-.8 0-1.6.6-1.6 1.4 0 2.2 4.5 1.1 4.5 4.4 0 1.7-1.3 2.9-3 2.9-1.5 0-2.8-.9-3.2-2.4l.9-.3c.3 1.1 1.1 1.9 2.3 1.9s2.1-.9 2.1-2.1c0-1.1-.9-1.5-1.8-1.8-1.2-.5-2.7-1-2.7-2.5 0-1.4 1.2-2.3 2.5-2.3.9 0 1.9.6 2.3 1.5zm7.5 0c-.3-.6-.9-1-1.6-1-.8 0-1.6.6-1.6 1.4 0 2.2 4.5 1.1 4.5 4.4 0 1.7-1.3 2.9-3 2.9-1.5 0-2.8-.9-3.2-2.4l.9-.3c.3 1.1 1.1 1.9 2.3 1.9s2.1-.9 2.1-2.1c0-1.1-.9-1.5-1.8-1.8-1.2-.5-2.7-1-2.7-2.5 0-1.4 1.2-2.3 2.5-2.3.9 0 1.9.6 2.3 1.5zm5.2-4.7c0 .5-.4.8-.8.8-.5 0-.8-.4-.8-.8s.4-.8.8-.8.8.3.8.8m-.4 12.2h-.9v-9.2h.9zm6.2-1.6 3.3-7.6h.9l-4.2 9.7-4.2-9.7h.9zm5.8-2.9c-.1 2.3 1.5 3.9 3.7 3.9 1.4 0 2.6-.9 3.2-2.1l.8.4c-.8 1.6-2.3 2.5-4.1 2.5-2.7 0-4.4-2.2-4.4-4.8s1.8-4.8 4.4-4.8c2.8 0 4.4 2.2 4.4 4.9zm7.1-.8c-.2-1.7-1.6-3.2-3.5-3.2s-3.4 1.5-3.6 3.2zm3.9 5.3h-.9v-16.4h.9zm1.4-9.2h.9l3.9 8.3 3.5-8.3h.9l-6.2 14.5h-.9l2.2-5.2zm11.6 8-1.6 4.5-.6-.2 1.3-4.5zm17.4 1.2h-1.1l-4.9-7.1h-.5v7.1h-1v-15h1.9c1.2 0 2.4 0 3.4.8 1.1.8 1.5 1.9 1.5 3.2 0 2.6-1.8 3.9-4.3 3.9zm-5.2-8c.9 0 1.9 0 2.6-.7.7-.6 1.1-1.5 1.1-2.4 0-1.1-.5-2.2-1.6-2.7-.8-.4-1.8-.3-2.7-.3h-.6v6.1zm7.4 3.5c-.1 2.3 1.5 3.9 3.7 3.9 1.4 0 2.6-.9 3.2-2.1l.8.4c-.8 1.6-2.3 2.5-4.1 2.5-2.7 0-4.4-2.2-4.4-4.8s1.8-4.8 4.4-4.8c2.8 0 4.4 2.2 4.4 4.9zm7.1-.8c-.2-1.7-1.6-3.2-3.5-3.2s-3.4 1.5-3.6 3.2zm3.9 5.3h-.9v-16.4h.9zm3.1-4.5c-.1 2.3 1.5 3.9 3.7 3.9 1.4 0 2.6-.9 3.2-2.1l.8.4c-.8 1.6-2.3 2.5-4.1 2.5-2.7 0-4.4-2.2-4.4-4.8s1.8-4.8 4.4-4.8c2.8 0 4.4 2.2 4.4 4.9zm7-.8c-.2-1.7-1.6-3.2-3.5-3.2s-3.4 1.5-3.6 3.2zm4-2.4c.6-1 1.6-1.6 2.8-1.6 2.4 0 3 1.5 3 3.8v5.5h-.9v-5.5c0-1.6-.2-3-2.2-3-2.3 0-2.7 2.1-2.7 4v4.5h-.9v-9.2h.9zm9.8 7.7h-.9v-8.3h-1v-.8h1v-3.3h.9v3.3h1.6v.8h-1.6zm4 0h-.9v-16.4h.9zm3.1-4.5c-.1 2.3 1.5 3.9 3.7 3.9 1.4 0 2.6-.9 3.2-2.1l.8.4c-.8 1.6-2.3 2.5-4.1 2.5-2.7 0-4.4-2.2-4.4-4.8s1.8-4.8 4.4-4.8c2.8 0 4.4 2.2 4.4 4.9zm7.1-.8c-.2-1.7-1.6-3.2-3.5-3.2s-3.4 1.5-3.6 3.2zm6.9-2.2c-.3-.6-.9-1-1.6-1-.8 0-1.6.6-1.6 1.4 0 2.2 4.5 1.1 4.5 4.4 0 1.7-1.3 2.9-3 2.9-1.5 0-2.8-.9-3.2-2.4l.9-.3c.3 1.1 1.1 1.9 2.3 1.9s2.1-.9 2.1-2.1c0-1.1-.9-1.5-1.8-1.8-1.2-.5-2.7-1-2.7-2.5 0-1.4 1.2-2.3 2.5-2.3.9 0 1.9.6 2.3 1.5zm7.4 0c-.3-.6-.9-1-1.6-1-.8 0-1.6.6-1.6 1.4 0 2.2 4.5 1.1 4.5 4.4 0 1.7-1.3 2.9-3 2.9-1.5 0-2.8-.9-3.2-2.4l.9-.3c.3 1.1 1.1 1.9 2.3 1.9s2.1-.9 2.1-2.1c0-1.1-.9-1.5-1.8-1.8-1.2-.5-2.7-1-2.7-2.5 0-1.4 1.2-2.3 2.5-2.3.9 0 1.9.6 2.3 1.5zm4.5 7.5h-.9v-16.4h.9zm1.4-9.2h.9l3.9 8.3 3.5-8.3h.9l-6.2 14.5h-.8l2.2-5.2zm20.5 6.6-1 2.6h-4.1l5.8-15h4.2l5.6 15h-4.1l-1-2.6zm2.7-7.7-1.6 4.8h3.2zm12.8 10.3h-3.6v-7.2H348v-3h1.2v-3.1h3.6v3.1h2v3h-2zm8.5-15h4.7l2.8 4.1 2.8-4.1h4.7l-5.5 7.8v7.2h-3.9v-7.2zm24.8 9.9c0 3.5-2.9 5.4-6.1 5.4-3.3 0-6.1-1.9-6.1-5.4s2.9-5.4 6.1-5.4 6.1 1.9 6.1 5.4m-8.4 0c0 1.3.9 2.3 2.3 2.3 1.5 0 2.3-1 2.3-2.3s-.9-2.3-2.3-2.3c-1.5 0-2.3 1.1-2.3 2.3m13.6-5.1v5.4c0 1.3.3 2.2 1.8 2.2s1.8-.9 1.8-2.2v-5.4h3.6v6.1c0 3.4-2.4 4.4-5.4 4.4-3.1 0-5.4-1-5.4-4.4v-6.1zm13.1 1.7c.7-1.2 1.9-1.8 3.3-1.8h.7v3.5c-.5-.3-1-.3-1.5-.3-2 0-2.5 1.3-2.5 3.1v4.1h-3.6V107h3.6zm20.5-2.6c-.7-.6-1.6-1-2.6-1-.7 0-1.7.4-1.7 1.2 0 .9 1.1 1.2 1.7 1.4l1 .3c2.1.6 3.7 1.7 3.7 4.1 0 1.5-.4 3-1.5 4-1.2 1-2.7 1.4-4.2 1.4-1.9 0-3.7-.6-5.3-1.7l1.7-3.1c1 .9 2.1 1.5 3.5 1.5.9 0 1.9-.5 1.9-1.5 0-1.1-1.5-1.5-2.4-1.7-2.4-.7-4-1.3-4-4.2 0-3 2.2-5 5.2-5 1.5 0 3.4.5 4.7 1.2zm14.4 6.6h-7.6c0 1.5.8 2.3 2.3 2.3.8 0 1.3-.3 1.7-.9h3.5c-.6 2.4-2.9 3.5-5.2 3.5-3.4 0-5.9-1.9-5.9-5.4 0-3.4 2.3-5.4 5.6-5.4 3.5 0 5.6 2.2 5.6 5.7zm-3.3-2.1c-.2-1-1.1-1.6-2-1.6-1.1 0-1.9.6-2.1 1.6zm8.6-1.9c.7-1.2 1.9-1.8 3.3-1.8h.7v3.5c-.5-.3-1-.3-1.5-.3-2 0-2.5 1.3-2.5 3.1v4.1H441V107h3.6zm10.7 3.5 2.4-5.2h4l-5.3 10.2h-2.3l-5.3-10.2h4zm11.2-9.1c0 1.1-.9 2-2 2s-2-.9-2-2 .9-2 2-2 2 .9 2 2m-.2 14.1h-3.6v-10.2h3.6zm9.7-6.9c-.5-.4-1.2-.7-1.9-.7-1.4 0-2.5 1.1-2.5 2.5 0 1.5 1.1 2.5 2.5 2.5.6 0 1.3-.3 1.8-.7v3.1c-.8.4-1.7.6-2.5.6-3 0-5.5-2.2-5.5-5.3 0-3.3 2.5-5.5 5.7-5.5.8 0 1.7.2 2.4.6zm12.7 2.4h-7.6c0 1.5.8 2.3 2.3 2.3.8 0 1.3-.3 1.7-.9h3.5c-.6 2.4-2.9 3.5-5.2 3.5-3.4 0-5.9-1.9-5.9-5.4 0-3.4 2.3-5.4 5.6-5.4 3.5 0 5.6 2.2 5.6 5.7zm-3.4-2.1c-.2-1-1.1-1.6-2-1.6-1.1 0-1.9.6-2.1 1.6z"/>
  <path class="st1" d="m532.6 61.6-6.5 15.9h13zM247.3 71.8c1.1-.2 2-.6 2.9-1.4 1.6-1.3 2.4-3.4 2.4-5.5 0-1.3-.3-2.6-.9-3.7s-1.5-2-2.7-2.5c-1.5-.7-3.5-.8-5.3-.8h-2.2v14.2h2.5c1.1 0 2.2 0 3.3-.3m261.9-12.3c-1.7-1.3-3.9-1.4-6.3-1.4h-3.3v14.1h3.7q1.8 0 3.3-.3c1-.3 2-.7 2.9-1.5 1.5-1.4 2.2-3.1 2.3-5.2 0-2.3-.9-4.5-2.6-5.7m-81.1 2.8c-3-3-7.2-4.9-11.7-4.9s-8.7 1.9-11.7 4.9-4.9 7.2-4.9 11.7 1.9 8.6 4.9 11.7c3 3 7.2 4.9 11.7 4.9s8.7-1.9 11.7-4.9 4.9-7.2 4.9-11.6c0-4.7-1.9-8.8-4.9-11.8"/>
  <path d="M129.4 93.5h19.2V90H133V73.9h15.2v-3.5H133V57.9h15.6v-3.5h-19.2zm75.3 0h19.2V90h-15.6V73.9h15.2v-3.5h-15.2V57.9h15.6v-3.5h-19.2zm41.2-18c2.8-.1 5.3-1 7.1-2.6 2-1.8 3.2-4.4 3.2-7.8 0-3.3-1.2-6.6-4.1-8.6-2.8-2-5.9-2-9-2h-5.3v39h3.6v-18h.3L254 93.4h4.2l-.7-.9zm-4.4-17.6h2.2c1.9 0 3.8.1 5.3.8 1.2.5 2.1 1.4 2.7 2.5s.9 2.4.9 3.7c0 2.1-.8 4.2-2.4 5.5-.9.7-1.8 1.1-2.9 1.4-1 .2-2.2.2-3.4.2h-2.5V57.9zM304.1 74H287v3.5h13.5c-.3 3.7-1.4 6.4-4.4 9-3 2.4-6.9 4-10.7 4-4.5 0-8.7-1.9-11.7-4.9s-4.9-7.2-4.9-11.6 1.9-8.5 4.9-11.6 7.2-5 11.6-5c5.9 0 10.8 3 14.1 7.9l.4.5 2.9-2.3-.3-.5c-4-5.5-9.8-9.1-16.9-9.1-11.2 0-20.3 9-20.3 20.2 0 10.8 9.2 19.9 20 19.9 5.5 0 11-2.3 14.8-6.3 3.3-3.6 4.1-7.7 4.1-12.2zm19.1-1-10.8-18.6h-4.1l.6.9 12.5 21.6v16.6h3.6V76.9l13-22.5h-4zm51.1-19.1c-11.1 0-20.3 9-20.3 20 0 10.9 9.4 19.9 20.3 19.9 4.8 0 9.3-1.8 13-4.8l.2-.2v-5.2l-1 1.3c-1.3 1.6-3.3 3-5.5 4s-4.6 1.6-6.7 1.6c-4.3 0-8.7-2.1-11.7-5.1-3.1-3-4.9-7-4.9-11.3 0-4.5 1.9-8.7 4.9-11.8s7.2-5 11.7-5 9.5 2.3 12.2 5.8l1 1.3v-5.2l-.2-.2c-3.5-3.2-8.3-5-13-5.1m42.1 0c-11 0-20.2 9-20.2 20s9.2 20 20.2 20 20.2-9 20.2-20c-.1-10.9-9.3-19.9-20.2-20m0 36.6c-4.5 0-8.7-1.9-11.7-4.9s-4.9-7.2-4.9-11.7 1.9-8.6 4.9-11.7c3-3 7.2-4.9 11.7-4.9s8.7 1.9 11.7 4.9 4.9 7.2 4.9 11.7-1.9 8.6-4.9 11.6c-3.1 3.1-7.2 5-11.7 5m95.4-33.7a9.2 9.2 0 0 0-4.1-2c-1.5-.3-3-.4-4.4-.4H496v39.1h3.7v-18h3.6c3 0 6.3-.4 8.8-2.6 2.3-1.9 3.4-5.1 3.4-7.9 0-3.1-1.2-6.1-3.7-8.2m-2.2 13.3c-.9.8-1.8 1.3-2.9 1.5-1 .3-2.1.3-3.3.3h-3.7v-14h3.3c2.3 0 4.6.1 6.2 1.4 1.7 1.3 2.6 3.4 2.6 5.6 0 2.1-.7 3.8-2.2 5.2m6.2 23.4h3.8l5.1-12.4h15.8l5.1 12.4h3.8l-16.7-41.3zm16.8-31.9 6.5 16h-12.9zm92.1-7.2L613.9 73l-10.8-18.6H599l.6.9 12.5 21.6v16.6h3.6V76.9l13.1-22.5zm-159.6 34-13.4-33.7h-5.6v38.7h3.8V59.2l13.5 34.2h3.4l13.5-34.2v34.2h3.8V54.7h-5.6zm-278.1.4-20.8-34.1h-4.6v38.8h3.8V59.3l20.8 34.2h4.6V54.7H187z"/>
  <path class="st1" d="M438.6 13.4h-1.3v7.8h1.2c2.8 0 5.5-.4 5.5-3.9s-2.5-3.9-5.4-3.9"/>
  <path d="M452.2 28.8c2.1-1.4 8.3-6.1 8.3-11.9 0-11.6-8.8-16.1-19.2-16.1H421V47h16.4V32.2h.3L445 47h19.4zm-13.7-7.5h-1.2v-7.8h1.3c2.9 0 5.4.4 5.4 4 0 3.3-2.7 3.8-5.5 3.8M585 88.8l-20.8-34.1h-4.5v38.8h3.8V59.3l20.8 34.2h4.6V54.7H585zM493.4 106h.5l1.1 2h1.2l-1.2-2.1c.6 0 1.2-.4 1.2-1.2 0-1.1-.7-1.4-2-1.4h-1.8v4.8h1zm0-.8V104h.7c.4 0 .9 0 .9.5s-.3.6-.7.6h-.9z"/>
  <path d="M494.2 110.1c-2.4 0-4.4-2-4.4-4.4s2-4.4 4.4-4.4 4.4 2 4.4 4.4c-.1 2.5-2 4.4-4.4 4.4m0-8c-2 0-3.6 1.6-3.6 3.6s1.6 3.6 3.6 3.6 3.6-1.6 3.6-3.6c0-1.9-1.7-3.6-3.6-3.6"/>
</svg>
